HIERARCHY
ROOT hip
{
	OFFSET 0.000000 0.000000 0.000000 
	CHANNELS 6 Xposition Yposition Zposition Xrotation Zrotation Yrotation
	JOINT abdomen
	{
		OFFSET 0.000000 3.402643 0.000000 
		CHANNELS 3 Xrotation Zrotation Yrotation
		JOINT chest
		{
			OFFSET 0.000000 8.438565 -0.680529 
			CHANNELS 3 Xrotation Zrotation Yrotation
			JOINT neck
			{
				OFFSET 0.000000 10.207942 -0.272212 
				CHANNELS 3 Xrotation Zrotation Yrotation
				JOINT head
				{
					OFFSET 0.000000 3.130431 0.000000 
					CHANNELS 3 Xrotation Zrotation Yrotation
					End Site
					{
						OFFSET 0.000000 3.130435 0.000000 
					}
				}
			}
			JOINT lCollar
			{
				OFFSET 3.470700 6.669187 -0.816635 
				CHANNELS 3 Yrotation Zrotation Xrotation
				JOINT lShldr
				{
					OFFSET 3.198488 0.000000 0.000000 
					CHANNELS 3 Zrotation Yrotation Xrotation
					JOINT lForeArm
					{
						OFFSET 10.139888 0.000000 0.000000 
						CHANNELS 3 Yrotation Zrotation Xrotation
						JOINT lHand
						{
							OFFSET 8.370511 0.000000 0.000000 
							CHANNELS 3 Zrotation Yrotation Xrotation
							End Site
							{
								OFFSET 4.083176 0.000000 0.000000 
							}
						}
					}
				}
			}
			JOINT rCollar
			{
				OFFSET -3.470700 6.669187 -0.816635 
				CHANNELS 3 Yrotation Zrotation Xrotation
				JOINT rShldr
				{
					OFFSET -3.198488 0.000000 0.000000 
					CHANNELS 3 Zrotation Yrotation Xrotation
					JOINT rForeArm
					{
						OFFSET -10.139888 0.000000 0.000000 
						CHANNELS 3 Yrotation Zrotation Xrotation
						JOINT rHand
						{
							OFFSET -8.370511 0.000000 0.000000 
							CHANNELS 3 Zrotation Yrotation Xrotation
							End Site
							{
								OFFSET -4.083176 0.000000 0.000000 
							}
						}
					}
				}
			}
		}
	}
	JOINT lThigh
	{
		OFFSET 5.308129 -1.633274 1.361059 
		CHANNELS 3 Xrotation Zrotation Yrotation
		JOINT lShin
		{
			OFFSET -2.041588 -20.007561 0.000000 
			CHANNELS 3 Xrotation Zrotation Yrotation
			JOINT lFoot
			{
				OFFSET 0.000000 -19.190928 -1.224953 
				CHANNELS 3 Xrotation Yrotation Zrotation
				End Site
				{
					OFFSET 0.000000 -2.449906 4.627600 
				}
			}
		}
	}
	JOINT rThigh
	{
		OFFSET -5.308129 -1.633274 1.361059 
		CHANNELS 3 Xrotation Zrotation Yrotation
		JOINT rShin
		{
			OFFSET 2.041588 -20.007561 0.000000 
			CHANNELS 3 Xrotation Zrotation Yrotation
			JOINT rFoot
			{
				OFFSET 0.000000 -19.190928 -1.224953 
				CHANNELS 3 Xrotation Yrotation Zrotation
				End Site
				{
					OFFSET 0.000000 -2.449906 4.627600 
				}
			}
		}
	}
}
MOTION
Frames: 15
Frame Time: 0.016667
-0.141835 33.209167 -1.347653 -33.946301 -2.709087 3.734601 0.000000 0.000000 0.000000 63.668053 6.536151 6.035903 -8.457032 0.000000 0.000000 -8.909427 -2.947650 24.634205 -2.812533 -0.096698 -0.019508 -57.222164 -8.477731 10.430808 -53.078129 -42.283901 4.310954 120.400444 -68.653053 -49.216381 2.792995 0.077173 -0.019521 53.070015 5.350555 19.275091 54.515022 29.508791 4.770532 -125.383583 70.105217 -36.473499 -41.385925 15.399898 -4.520846 72.104996 2.883770 7.096771 3.275016 -4.687512 -6.839398 -31.430994 -24.553627 -19.186176 68.983345 -5.986264 -4.059159 -7.407910 16.892321 3.264655 
-0.141835 33.209167 -1.347653 -33.946301 -2.709087 3.734601 0.000000 0.000000 0.000000 63.680824 6.575116 6.026203 -8.457032 0.000000 0.000000 -8.996956 -3.031078 24.489485 -2.812533 -0.096698 -0.019508 -57.136936 -8.558980 10.515571 -53.078129 -42.283901 4.310954 120.324379 -68.645599 -49.038868 2.792995 0.077173 -0.019521 53.057823 5.440719 19.271179 54.515022 29.508791 4.770532 -125.301651 70.099571 -36.446377 -41.385925 15.399898 -4.520846 72.092102 2.884092 7.019557 3.275015 -4.687521 -6.839392 -31.430994 -24.553627 -19.186176 68.979820 -5.986222 -3.972096 -7.411952 16.887119 3.272507 
-0.141835 33.209167 -1.347653 -34.032734 -2.679822 3.743900 0.000000 0.000000 0.000000 63.757679 6.556628 5.947479 -8.457032 0.000000 0.000000 -9.007175 -3.035296 24.313486 -2.812533 -0.096698 -0.019508 -57.119770 -8.655740 10.687439 -53.130131 -42.341480 4.207077 120.230316 -68.571312 -48.853367 2.792995 0.077173 -0.019521 53.058735 5.440400 19.183081 54.520260 29.504583 4.859918 -125.243256 70.104744 -36.379787 -41.384060 15.399370 -4.608292 72.092102 2.884090 7.019554 3.243646 -4.629178 -6.728170 -31.430998 -24.553627 -19.186176 68.979820 -5.986222 -3.972098 -7.475966 16.854307 3.258193 
-0.141835 33.209167 -1.347653 -34.119347 -2.660333 3.743903 0.000000 0.000000 0.000000 63.843334 6.528408 5.868753 -8.457032 0.000000 0.000000 -9.003617 -3.030574 24.136965 -2.812533 -0.096698 -0.019508 -57.112686 -8.750827 10.859235 -53.198364 -42.391747 4.091801 120.150543 -68.488373 -48.695648 2.792995 0.077173 -0.019521 53.059715 5.440106 19.094967 54.515480 29.499683 4.945402 -125.188133 70.111427 -36.312801 -41.392662 15.399059 -4.696355 72.092636 2.874328 7.022362 3.225665 -4.591894 -6.602984 -31.430994 -24.553629 -19.186174 68.979820 -5.986224 -3.972097 -7.537505 16.835785 3.237359 
-0.141534 33.207748 -1.346269 -34.135914 -2.728393 3.793128 0.000000 0.000000 0.000000 63.772861 6.635614 5.840782 -8.457032 0.000000 0.000000 -8.998964 -3.032653 24.049219 -2.812533 -0.096698 -0.019508 -57.031296 -8.737994 10.959647 -53.198364 -42.391747 4.091801 120.009651 -68.494637 -48.592293 2.792995 0.077173 -0.019521 53.058643 5.532848 19.099564 54.515480 29.499683 4.945402 -125.051826 70.202469 -36.302898 -41.392662 15.399059 -4.696354 72.092636 2.874325 7.022361 3.195744 -4.611589 -6.621924 -31.344637 -24.555988 -19.027163 68.993515 -5.908080 -4.181703 -7.606291 17.023088 3.228687 
-0.141232 33.206337 -1.344885 -34.162354 -2.796444 3.842366 0.000000 0.000000 0.000000 63.700134 6.733230 5.801992 -8.457032 0.000000 0.000000 -9.004073 -3.034724 23.961477 -2.812533 -0.096698 -0.019508 -56.939526 -8.735550 11.051880 -53.198364 -42.391747 4.091801 119.868797 -68.500801 -48.498039 2.792995 0.077173 -0.019521 53.064751 5.616580 19.096579 54.515480 29.499683 4.945402 -124.941536 70.289452 -36.310844 -41.392658 15.399066 -4.696357 72.092636 2.874322 7.022359 3.177570 -4.622560 -6.616666 -31.256418 -24.545744 -18.860247 68.997345 -5.830007 -4.391779 -7.710759 17.202000 3.233983 
-0.139242 33.203503 -1.342417 -34.158058 -2.796729 3.754104 0.000000 0.000000 0.000000 63.723576 6.802520 5.695333 -8.457032 0.000000 0.000000 -9.090441 -3.118566 23.816288 -2.812533 -0.096698 -0.019508 -56.936100 -8.821467 11.313155 -53.136997 -42.344257 4.114216 119.773979 -68.319748 -48.248753 2.792995 0.077173 -0.019521 53.145615 5.711666 18.998497 54.520260 29.504583 4.859918 -124.801842 70.291313 -36.307098 -41.375427 15.477936 -4.797424 72.185188 2.796177 7.052666 3.141532 -4.423382 -6.653090 -31.344637 -24.555988 -19.027163 69.077950 -5.995965 -4.232437 -7.715535 17.160994 3.335095 
-0.137253 33.200672 -1.339953 -34.163532 -2.797007 3.666318 0.000000 0.000000 0.000000 63.747719 6.881529 5.587525 -8.457032 0.000000 0.000000 -9.173009 -3.193386 23.681419 -2.812533 -0.096698 -0.019508 -56.933472 -8.907576 11.572816 -53.075657 -42.296730 4.143244 119.663750 -68.146088 -47.990372 2.792995 0.077173 -0.019521 53.229004 5.805038 18.913193 54.515022 29.508791 4.770532 -124.665596 70.294762 -36.302963 -41.347324 15.563391 -4.919300 72.268417 2.715863 7.090603 3.108401 -4.239364 -6.673377 -31.430994 -24.553625 -19.186178 69.148987 -6.161956 -4.082916 -7.735731 17.109940 3.442991 
-0.134183 33.196419 -1.339172 -34.240410 -2.777516 3.666320 0.000000 0.000000 0.000000 63.777546 6.998277 5.579016 -8.457032 0.000000 0.000000 -9.266718 -3.188709 23.504877 -2.812533 -0.096698 -0.019508 -56.834938 -8.990856 11.751345 -53.075657 -42.296730 4.143244 119.575859 -68.054436 -47.821983 2.792995 0.077173 -0.019521 53.226521 5.891969 18.822395 54.515022 29.508791 4.770532 -124.501671 70.390236 -36.224899 -41.257729 15.555819 -4.833622 72.179314 2.718116 7.065192 2.878594 -4.130024 -6.948397 -31.239250 -24.539530 -19.049917 69.159958 -5.908044 -4.174712 -7.850312 17.108513 3.255532 
-0.131117 33.192169 -1.338394 -34.326897 -2.748249 3.676074 0.000000 0.000000 0.000000 63.806118 7.115146 5.560838 -8.457032 0.000000 0.000000 -9.351248 -3.183744 23.338625 -2.812533 -0.096698 -0.019508 -56.736088 -9.083022 11.924273 -53.075657 -42.296730 4.143244 119.483109 -67.978470 -47.655434 2.792995 0.077173 -0.019521 53.224560 5.971083 18.737421 54.515022 29.508791 4.770532 -124.294250 70.481995 -36.117611 -41.150715 15.536613 -4.742294 72.081657 2.718605 7.067789 2.633695 -4.049021 -7.233894 -31.042866 -24.518373 -18.893366 69.190872 -5.654275 -4.287553 -8.014570 17.131359 3.100817 
-0.127743 33.187923 -1.336228 -34.353695 -2.816281 3.734593 0.000000 0.000000 0.000000 63.831989 7.233202 5.444585 -8.457032 0.000000 0.000000 -9.351232 -3.187940 23.162622 -2.812533 -0.096698 -0.019508 -56.726917 -9.080421 12.185240 -53.075657 -42.296730 4.143244 119.473625 -67.891228 -47.484684 2.792995 0.077173 -0.019521 53.305134 6.067040 18.639267 54.520260 29.504583 4.859918 -124.189598 70.570633 -35.965721 -41.044987 15.534143 -4.726423 71.996155 2.766709 6.939016 2.344989 -3.993472 -7.406596 -31.079956 -24.456778 -18.995672 69.191078 -5.742167 -4.433493 -7.972439 17.101208 3.166403 
-0.124372 33.183674 -1.334065 -34.371021 -2.894078 3.783838 0.000000 0.000000 0.000000 63.857384 7.351274 5.327120 -8.457032 0.000000 0.000000 -9.351204 -3.192106 22.986620 -2.812533 -0.096698 -0.019508 -56.728374 -9.089499 12.450454 -53.075657 -42.296730 4.143244 119.460716 -67.802841 -47.314426 2.792995 0.077173 -0.019521 53.395592 6.152359 18.548271 54.515480 29.499683 4.945402 -124.083717 70.659096 -35.804504 -40.947960 15.534418 -4.700171 71.911789 2.815770 6.839859 2.060572 -3.966791 -7.579453 -31.111788 -24.431345 -19.113546 69.190842 -5.830057 -4.569781 -7.931474 17.083050 3.291119 
-0.120990 33.179424 -1.331846 -34.453072 -2.865101 3.705325 0.000000 0.000000 0.000000 63.966457 7.401055 5.230282 -8.457032 0.000000 0.000000 -9.450033 -3.274670 22.920029 -2.812533 -0.096698 -0.019508 -56.721767 -9.174346 12.536799 -53.077408 -42.307442 4.054595 119.335060 -67.626259 -47.125938 2.792995 0.077173 -0.019521 53.392796 6.239600 18.457767 54.555634 29.548170 4.884498 -123.815430 70.755180 -35.511635 -40.947193 15.533867 -4.687831 71.819633 2.813358 6.733345 1.977493 -3.923908 -7.683259 -30.993879 -24.400911 -19.120064 69.181419 -5.830056 -4.579283 -8.035075 17.157797 3.223789 
-0.117611 33.175179 -1.329627 -34.544476 -2.836143 3.617547 0.000000 0.000000 0.000000 64.076248 7.460553 5.132197 -8.457032 0.000000 0.000000 -9.539479 -3.357069 22.863235 -2.812533 -0.096698 -0.019508 -56.716469 -9.264590 12.629638 -53.080360 -42.308487 3.972456 119.232727 -67.443802 -46.954971 2.792995 0.077173 -0.019521 53.391834 6.332637 18.374899 54.591805 29.614296 4.828598 -123.568596 70.845108 -35.246227 -40.947964 15.534411 -4.700169 71.758606 2.815577 6.678908 1.875917 -3.932512 -7.774958 -30.887980 -24.383698 -19.152159 69.180283 -5.839180 -4.566062 -8.145067 17.239563 3.164762 
-0.114183 33.170872 -1.327477 -34.561661 -2.913954 3.666800 0.000000 0.000000 0.000000 64.024780 7.597186 5.094771 -8.457032 0.000000 0.000000 -9.712031 -3.347830 22.872984 -2.812533 -0.096698 -0.019508 -56.710079 -9.265573 12.712605 -52.921341 -42.315395 4.084332 119.151146 -67.365814 -46.887341 2.792995 0.077173 -0.019521 53.472782 6.421637 18.283442 54.591805 29.614296 4.828598 -123.369843 70.853401 -35.175209 -40.949017 15.563983 -4.709321 71.835526 2.844969 6.677942 1.647294 -3.775395 -7.825472 -30.887978 -24.383701 -19.152153 69.180283 -5.839180 -4.566063 -8.212688 17.307524 3.216223 
